<?xml version="1.0" encoding="UTF-8"?>
<svg viewBox="0 0 200 100" xmlns="http://www.w3.org/2000/svg">
 <g transform="matrix(1.4187 0 0 1.4187 -627.75 -411.93)">
  <path d="m458.76 327.35c-0.47433-1.3096-1.158-2.4826-1.9051-3.65-0.74964-1.3206-1.1996-2.7225-1.0599-4.2417 0.26158-1.4411 1.3064-2.4723 2.0902-3.6407 0.76471-1.2958 1.8723-2.2578 2.9718-3.254 2.4494-1.8657 5.0839-3.7592 8.1595-4.3065 1.8684-0.0609 3.7061 0.46085 5.4782 1.0034 1.5866 0.61539 3.0739 1.4473 4.6188 2.1577 1.2659 0.62995 2.5279 1.2917 3.6617 2.1382l-4.079 2.5868c-1.1275-0.80638-2.3521-1.4679-3.6054-2.0589-1.5247-0.69855-2.9802-1.5514-4.5648-2.1125-1.7335-0.50347-3.5392-1.0224-5.3593-0.79551-1.986 0.47195-3.6475 1.7863 1.9992-1.6513 0.20377-0.12405-0.42554 0.21769-0.62537 0.34799-0.41384 0.26983-0.76067 0.6358-1.2066 0.86065-0.71484 0.6547-1.5981 1.2514-2.1981 2.0147-0.14666 0.18661-0.24781 0.40555-0.38828 0.59686-0.13199 0.17978-0.28515 0.34301-0.42772 0.51451-0.67873 1.1847-1.7977 2.098-2.1708 3.4543-0.26406 1.4029 0.20167 2.722 0.88127 3.9511 0.77308 1.2199 1.4724 2.4498 2.0511 3.7745l-4.3213 2.3104z"/>
  <path transform="matrix(.66486 0 0 1 154.87 0)" d="m606.03 328.69c0 10.097-32.218 18.282-71.961 18.282s-71.961-8.1851-71.961-18.282 32.218-18.282 71.961-18.282 71.961 8.1851 71.961 18.282z" fill="#fcaf3e"/>
  <path d="m558.98 317.14c2.0335-0.24055 4.0861-0.33778 6.1321-0.27273 1.7621 0.14486 3.7918 0.0358 5.3632 1.0128 0.25122 0.15618 0.45763 0.37494 0.68644 0.56241 1.1758 1.1823 1.5934 2.5978 1.8361 4.1993 0.17569 1.4519 0.26935 2.9033-0.0176 4.3425-0.53219 1.6046-1.5885 2.9049-2.8374 4.0089-2.7351 1.9098-5.6638 3.6206-8.8764 4.552-1.4227 0.51141-2.8976 0.8546-4.3754 1.1615-1.4834 0.27674-2.9921 0.34337-4.4964 0.40061l3.8758-2.8417c1.4977-0.0733 3-0.16302 4.4693-0.48408 1.4614-0.33734 2.9217-0.68051 4.338-1.1813 0.80884-0.25839 0.90294-0.26986 1.6985-0.60103 0.27905-0.11616 1.0814-0.53431 0.82806-0.36951-6.1898 4.0263-3.4075 1.9638-1.9499 1.173 1.2806-0.98687 2.3372-2.208 2.9624-3.7164 0.35438-1.3776 0.24863-2.7842 0.1108-4.1906-0.20406-1.4784-0.56282-2.7942-1.6511-3.8845-1.7181-1.3106-3.7503-1.2536-5.8228-1.3537-2.0648-0.0265-4.1462 0.0622-6.1803 0.44049l3.9067-2.9579z"/>
  <path d="m458.21 328.08c1.0638-0.87414 1.9922-1.9054 2.9529-2.8902 1.2435-1.2414 2.6528-2.2932 4.1005-3.2813 1.55-1.0676 3.1344-2.0838 4.7445-3.0582 3.3414-1.9843 6.6268-4.0967 10.126-5.7921 1.6603-0.81959 3.432-1.231 5.2599-1.4405 1.8995-0.37462 3.8219-0.56588 5.7532-0.66118 2.3716-0.13902 4.7398 0.15621 7.1068 0.29234 2.3656 0.17831 4.7444 0.0676 7.1069 0.26743 1.7346 0.19519 3.4716 0.34489 5.2157 0.41282 1.7845-0.15295 3.5677-0.31028 5.3561-0.41042 1.7726-8e-3 3.5238-0.28423 5.2855-0.44545 1.6998 0.071 3.4152 0.10955 5.0998 0.35924 1.894 0.19583 3.8044 0.22722 5.709 0.35838 1.9476 0.29297 3.9082 0.51154 5.8171 1.0084 1.8953 0.51933 3.8607 0.58943 5.7686 1.0415 1.8666 0.30165 3.6432 0.86174 5.4014 1.5415 1.4108 0.59424 2.5675 1.5831 3.8314 2.4144 1.1 0.70877 2.0722 1.583 3.0628 2.431 0.92446 0.86635 1.6716 1.8548 2.2957 2.9531 0.50577 0.98516 1.1187 1.8568 1.3531 2.9571 0.15203 1.0885 0.12037 2.1833-0.063 3.2638-0.16323 1.2032-0.6154 2.3114-1.1596 3.3849-0.6081 1.2318-1.5014 2.2902-2.5145 3.2075-2.316 1.6395-4.9413 2.9844-7.3866 4.2946-0.71329 0.38215-1.7454 0.44568-2.5232 0.64668-2.0596 0.42914-4.0724 1.0285-6.1458 1.3946-1.9851 0.47601-4.0058 0.72055-6.0399 0.84142-1.9727 0.12947-3.9328 0.38548-5.9083 0.50404-1.7867-0.0239-3.5406 0.28703-5.3056 0.51035-1.4024 0.12841-2.793 0.15688-4.1862 0.3721-1.7454 0.27382-3.5186 0.28876-5.2814 0.3125-2.6402 0.18449-5.279 0.37467-7.9236 0.48337-2.1537 0.0862-4.3091 0.0926-6.4641 0.10514-2.0258 7e-3 -4.0516-4e-3 -6.0774-0.0122-2.2947-0.0178-4.5894 4e-3 -6.884 7e-3 -2.0121 0.0926-4.004-0.0822-6.0034-0.27241-1.7373-0.0619-3.3793-0.44384-4.9206-1.2356-1.3167-0.83548-2.6194-1.6926-3.8873-2.6015-1.2049-0.9586-2.3139-2.0184-3.5428-2.9447-1.1811-0.93904-2.3423-1.8851-3.5571-2.7779-0.99118-0.8398-1.7378-1.9047-2.4063-3.0074-0.47075-0.99041-0.96707-1.9687-1.4502-2.9542-0.45199-1.1817-0.0296-2.2884 0.49125-3.3608 0.47711-0.71751 1.1099-1.3052 1.7153-1.9102l5.9312-2.4466c-0.59048 0.5568-1.1146 1.1706-1.7441 1.683-0.4458 0.88695-1.0422 1.7921-0.74576 2.8252 0.47333 0.969 0.95902 1.9307 1.4046 2.912 0.62833 1.0293 1.3226 2.0255 2.2559 2.8051 1.2118 0.89977 2.3653 1.8641 3.5597 2.7874 1.213 0.93266 2.3064 2.0019 3.524 2.9311 1.2495 0.87829 2.5162 1.7394 3.8344 2.5103 1.5009 0.6923 3.1016 0.99193 4.7526 1.0704 1.9862 0.18552 3.9685 0.29531 5.965 0.22597 2.2872 4e-3 4.5744 0.0255 6.8616 0.01 2.0345-6e-3 4.0689-0.0111 6.1034-9e-3 2.1351-5e-5 4.2706-0.0182 6.4046-0.092 2.6547-0.11055 5.3032-0.30604 7.9534-0.49077 1.7721-0.0575 3.5472-0.12904 5.2997-0.41943 1.3946-0.17791 2.8002-0.18939 4.1953-0.3664 1.7531-0.2173 3.5046-0.41436 5.2737-0.43987 1.9744-0.14264 3.9363-0.41247 5.9136-0.50974 2.0163-0.15585 4.0132-0.44799 5.9872-0.89467 2.0675-0.40613 4.0912-0.9867 6.1464-1.4483 0.41432-0.10484 1.299-0.31947 1.7068-0.45909 0.25723-0.0881 0.98683-0.45009 0.75577-0.30679-8.6822 5.3845-5.6111 3.2312-3.6601 2.1404 1.0814-0.76501 1.9687-1.802 2.6205-2.953 0.52106-1.03 1.0832-2.0426 1.2268-3.2113 0.2017-1.0101 0.27991-2.0158 0.15996-3.0461-0.16194-1.0481-0.78157-1.8414-1.2298-2.7802-0.58293-1.0374-1.2961-1.9552-2.1758-2.7611-0.97597-0.83189-1.9306-1.6899-3.0196-2.3761-1.1918-0.8447-2.3445-1.7525-3.7122-2.3085-1.7402-0.64087-3.4914-1.1828-5.3282-1.4806-1.924-0.39635-3.8966-0.5101-5.7936-1.0471-1.8852-0.46141-3.8172-0.67894-5.7404-0.92234-1.918-0.13278-3.8442-0.13235-5.7514-0.37404-1.6602-0.17738-3.3377-0.2975-5.0074-0.24913-1.7647 0.17863-3.5261 0.40329-5.3023 0.42685-1.8032 0.10568-3.5995 0.32031-5.4052 0.36454-1.7347-0.0899-3.4591-0.26592-5.1854-0.456-2.3478-0.14206-4.7039-0.12416-7.051-0.29662-2.3728-0.14214-4.7512-0.35634-7.1286-0.18507-1.9203 0.12675-3.8262 0.36468-5.7216 0.70071-1.7966 0.2887-3.5311 0.76983-5.152 1.6202-2.4086 1.2273-1.0307 0.5434 3.9933-2.3829l-0.75454 0.44013c-0.51135 0.30223-1.0304 0.59128-1.5405 0.89562-0.28188 0.16818-0.55624 0.34867-0.83435 0.52301-1.6093 0.95468-3.1887 1.9495-4.7256 3.0131-1.4442 0.96769-2.8768 1.9544-4.1413 3.1566-0.95083 0.9752-1.9033 1.9495-2.8295 2.9482l-6.0723 2.4148z"/>
  <g transform="matrix(1.858 0 0 1.858 -418.16 -269.88)">
   <path d="m501.74637,322.61183 .19425.009c.11791.005.23561.0144.35306.026l.43993.0643c.16616.0299.32895.0746.49049.12305 .17235.0514.33997.11632.50537.18652s.33449.16102.49559.25319c.17841.1004.34508.21858.50408.34711 .17027.13983.31537.30514.44694.48098 .1441.19121.23617.40886.29969.63794 .0659.26309.0412.52546-.0269.78428-.0844.28171-.26283.50295-.4803.69341-.21343.17593-.4687.27269-.73349.33919-.25255.0564-.51055.0515-.76634.0269-.23279-.0249-.45815-.088-.6792-.16265-.19152-.0673-.37691-.1504-.5595-.23875-.14958-.0739-.29579-.15433-.44203-.23456-.11897-.0657-.23853-.13025-.35984-.19152l-.35369-.17052c-.15757-.076-.30505-.16957-.4468-.27157-.14387-.10533-.27212-.22926-.39485-.35803-.11012-.11714-.20887-.24414-.305-.3728-.11969-.15415-.20954-.32585-.28223-.50614-.0941-.24352-.0982-.49497-.0558-.74892 .0752-.31321.23462-.51762.48385-.71231 .21097-.14736.45378-.20823.70614-.23066 .20445-.0128.40596.0217.60364.07 .18218.047.35359.12486.52215.20686 .13588.0692.27197.13793.4101.20255s.27601.11777.41702.16909 .28699.0947.43261.135l.0722.0189-.41294,1.56533-.0936-.0248c-.18614-.0521-.37152-.10733-.55305-.17402s-.36499-.13775-.54215-.21954l-.43665-.20901c-.069-.0329-.13805-.0668-.21093-.0905-.0122-.003-.096-.0197-.0875-.0228 .0451-.0183.0908-.0374.12835-.0704 .0835-.0757.14402-.16699.16102-.28059 .005-.0527.011-.11443-.0189-.16148-.002.028.0442.0832.0638.11333 .0565.077.11479.15285.17936.22335 .0539.0575.10914.11427.17187.16233 .0659.0498.13684.0918.21063.12888l.37023.18083c.13597.07.27055.14258.40399.21729 .12343.0683.24692.13651.37229.20118 .12064.0603.24363.11639.37045.16254 .10385.0365.20967.0684.31909.0832 .0746.009.15005.0149.22503.006 .017-.003.054-.0207.0647-.007-.0146.0311-.0355.0598-.0378.0956-.002.0258-.002.0502.0128.0727 .0181-.005-.0277-.0719-.032-.0787-.0469-.0684-.10091-.13151-.16373-.18601-.0876-.0738-.18198-.13803-.28184-.19415-.10654-.0609-.21493-.11863-.32741-.16794s-.21878-.0894-.33218-.12278c-.10351-.0305-.20763-.0593-.31399-.0783-.10091-.0179-.20236-.0331-.30446-.0425-.084-.007-.1683-.0118-.25265-.0127l-.14295.003v-1.64829z" fill="#2e3436"/>
   <path transform="matrix(.44633 .30974 -.30974 .44633 386.5 24.21)" d="m494.26 331.75c0 0.91143-1.6009 1.6503-3.5756 1.6503s-3.5756-0.73887-3.5756-1.6503 1.6009-1.6503 3.5756-1.6503c1.9639 0 3.5603 0.73107 3.5755 1.6375l-3.5755 0.0128z" fill="#a40000"/>
   <path d="m501.0349,322.01303c.10317-.0504.21368-.0811.32518-.10649 .14371-.03.30258-.13484.44895-.13704 .16875-.001.30033.0392.46753.0604 .17993.0236.38199.13323.55884.17337s.35908.0918.53597.14702c.17045.0539.33864.1146.50617.17695l.46806.18341 .46227.19146c.15661.0663.31237.13453.46733.20456 .17912.0787.35076.17219.51672.27547 .19036.11706.34869.26996.48524.44537 .12633.18378.21593.39452.22924.61955 .003.0553-.001.11085-.002.16628-.0346.2995-.18143.5616-.42679.73939l-.13017.0795c-.21662.11407-.45483.14454-.69586.14482-.20007-.004-.39468-.0498-.5857-.10543l-.46801-.16136c-.14624-.0534-.29281-.10588-.43989-.1569l-.43494-.14678c-.15083-.0502-.30012-.10486-.44874-.16122l-.44484-.18009-.43402-.18005-.4263-.18527c-.15085-.0659-.29787-.13987-.44209-.21913-.15503-.0842-.30038-.18375-.43879-.29278-.17537-.13628-.30694-.30972-.41344-.5026-.11136-.236-.14975-.50145-.0786-.75595 .0161-.0574.0416-.11176.0623-.16764 .1206-.23897.31458-.42405.56347-.52496 .0454-.0184.0932-.0302.13976-.0453 .24786-.0649.49341-.0308.73321.0454 .18813.0652.35315.17502.50788.29783l.29947.27061c.0711.0663.14737.12655.22667.1827s.17532.10753.2672.15363 .18641.0825.28161.11889l-.57853,1.51487c-.14601-.0557-.29124-.11378-.43148-.18301-.16489-.0828-.32735-.17112-.47845-.27756-.13427-.0951-.26434-.19594-.38566-.30729-.0739-.0673-.14634-.13619-.22263-.20078-.0115-.01-.0494-.035-.0117-.0225 .0747.0146.15062.01.22345-.0128 .16259-.0621.28729-.167.35751-.33031 .0543-.16903.075-.33157-.0157-.49317l-.0245-.0286c.0625.0542.13248.0983.20441.13887 .1032.0578.20851.11156.31691.15903 .12976.058.25986.1153.39064.171l.42758.17789 .39982.16075c.12982.0491.26001.0973.39152.14173l.44874.15278 .45623.16209c.12379.044.24759.0882.37334.12633 .049.0141.0981.0281.14847.0363-.0101.0114-.0841.03-.10656.05-.16939.11614-.27804.28356-.29058.49238 .004.10714.0134.21884.0887.30231 .0572.054-.0206-.0364-.0414-.0394-.0977-.0658-.20161-.12125-.30952-.16851-.14289-.0645-.28694-.12629-.43114-.18777l-.43458-.18017c-.14396-.0575-.28785-.11527-.43304-.16968l-.42071-.14855c-.13547-.0422-.27162-.0823-.41039-.11233-.12537-.0281-.25126-.0545-.37895-.0697-.0906-.0109-.18167-.0188-.273-.017-.0361.001-.0725.002-.10813.009l.0537-.019-.73736-1.47473 .0001-.0001z" fill="#2e3436"/>
  </g>
  <g transform="matrix(1.6175 .91418 -.91418 1.6175 23.879 -656.07)">
   <path d="m501.74637,322.61183 .19425.009c.11791.005.23561.0144.35306.026l.43993.0643c.16616.0299.32895.0746.49049.12305 .17235.0514.33997.11632.50537.18652s.33449.16102.49559.25319c.17841.1004.34508.21858.50408.34711 .17027.13983.31537.30514.44694.48098 .1441.19121.23617.40886.29969.63794 .0659.26309.0412.52546-.0269.78428-.0844.28171-.26283.50295-.4803.69341-.21343.17593-.4687.27269-.73349.33919-.25255.0564-.51055.0515-.76634.0269-.23279-.0249-.45815-.088-.6792-.16265-.19152-.0673-.37691-.1504-.5595-.23875-.14958-.0739-.29579-.15433-.44203-.23456-.11897-.0657-.23853-.13025-.35984-.19152l-.35369-.17052c-.15757-.076-.30505-.16957-.4468-.27157-.14387-.10533-.27212-.22926-.39485-.35803-.11012-.11714-.20887-.24414-.305-.3728-.11969-.15415-.20954-.32585-.28223-.50614-.0941-.24352-.0982-.49497-.0558-.74892 .0752-.31321.23462-.51762.48385-.71231 .21097-.14736.45378-.20823.70614-.23066 .20445-.0128.40596.0217.60364.07 .18218.047.35359.12486.52215.20686 .13588.0692.27197.13793.4101.20255s.27601.11777.41702.16909 .28699.0947.43261.135l.0722.0189-.41294,1.56533-.0936-.0248c-.18614-.0521-.37152-.10733-.55305-.17402s-.36499-.13775-.54215-.21954l-.43665-.20901c-.069-.0329-.13805-.0668-.21093-.0905-.0122-.003-.096-.0197-.0875-.0228 .0451-.0183.0908-.0374.12835-.0704 .0835-.0757.14402-.16699.16102-.28059 .005-.0527.011-.11443-.0189-.16148-.002.028.0442.0832.0638.11333 .0565.077.11479.15285.17936.22335 .0539.0575.10914.11427.17187.16233 .0659.0498.13684.0918.21063.12888l.37023.18083c.13597.07.27055.14258.40399.21729 .12343.0683.24692.13651.37229.20118 .12064.0603.24363.11639.37045.16254 .10385.0365.20967.0684.31909.0832 .0746.009.15005.0149.22503.006 .017-.003.054-.0207.0647-.007-.0146.0311-.0355.0598-.0378.0956-.002.0258-.002.0502.0128.0727 .0181-.005-.0277-.0719-.032-.0787-.0469-.0684-.10091-.13151-.16373-.18601-.0876-.0738-.18198-.13803-.28184-.19415-.10654-.0609-.21493-.11863-.32741-.16794s-.21878-.0894-.33218-.12278c-.10351-.0305-.20763-.0593-.31399-.0783-.10091-.0179-.20236-.0331-.30446-.0425-.084-.007-.1683-.0118-.25265-.0127l-.14295.003v-1.64829z" fill="#2e3436"/>
   <path transform="matrix(.44633 .30974 -.30974 .44633 386.5 24.21)" d="m494.26 331.75c0 0.91143-1.6009 1.6503-3.5756 1.6503s-3.5756-0.73887-3.5756-1.6503 1.6009-1.6503 3.5756-1.6503c1.9639 0 3.5603 0.73107 3.5755 1.6375l-3.5755 0.0128z" fill="#a40000"/>
   <path d="m501.0349,322.01303c.10317-.0504.21368-.0811.32518-.10649 .14371-.03.30258-.13484.44895-.13704 .16875-.001.30033.0392.46753.0604 .17993.0236.38199.13323.55884.17337s.35908.0918.53597.14702c.17045.0539.33864.1146.50617.17695l.46806.18341 .46227.19146c.15661.0663.31237.13453.46733.20456 .17912.0787.35076.17219.51672.27547 .19036.11706.34869.26996.48524.44537 .12633.18378.21593.39452.22924.61955 .003.0553-.001.11085-.002.16628-.0346.2995-.18143.5616-.42679.73939l-.13017.0795c-.21662.11407-.45483.14454-.69586.14482-.20007-.004-.39468-.0498-.5857-.10543l-.46801-.16136c-.14624-.0534-.29281-.10588-.43989-.1569l-.43494-.14678c-.15083-.0502-.30012-.10486-.44874-.16122l-.44484-.18009-.43402-.18005-.4263-.18527c-.15085-.0659-.29787-.13987-.44209-.21913-.15503-.0842-.30038-.18375-.43879-.29278-.17537-.13628-.30694-.30972-.41344-.5026-.11136-.236-.14975-.50145-.0786-.75595 .0161-.0574.0416-.11176.0623-.16764 .1206-.23897.31458-.42405.56347-.52496 .0454-.0184.0932-.0302.13976-.0453 .24786-.0649.49341-.0308.73321.0454 .18813.0652.35315.17502.50788.29783l.29947.27061c.0711.0663.14737.12655.22667.1827s.17532.10753.2672.15363 .18641.0825.28161.11889l-.57853,1.51487c-.14601-.0557-.29124-.11378-.43148-.18301-.16489-.0828-.32735-.17112-.47845-.27756-.13427-.0951-.26434-.19594-.38566-.30729-.0739-.0673-.14634-.13619-.22263-.20078-.0115-.01-.0494-.035-.0117-.0225 .0747.0146.15062.01.22345-.0128 .16259-.0621.28729-.167.35751-.33031 .0543-.16903.075-.33157-.0157-.49317l-.0245-.0286c.0625.0542.13248.0983.20441.13887 .1032.0578.20851.11156.31691.15903 .12976.058.25986.1153.39064.171l.42758.17789 .39982.16075c.12982.0491.26001.0973.39152.14173l.44874.15278 .45623.16209c.12379.044.24759.0882.37334.12633 .049.0141.0981.0281.14847.0363-.0101.0114-.0841.03-.10656.05-.16939.11614-.27804.28356-.29058.49238 .004.10714.0134.21884.0887.30231 .0572.054-.0206-.0364-.0414-.0394-.0977-.0658-.20161-.12125-.30952-.16851-.14289-.0645-.28694-.12629-.43114-.18777l-.43458-.18017c-.14396-.0575-.28785-.11527-.43304-.16968l-.42071-.14855c-.13547-.0422-.27162-.0823-.41039-.11233-.12537-.0281-.25126-.0545-.37895-.0697-.0906-.0109-.18167-.0188-.273-.017-.0361.001-.0725.002-.10813.009l.0537-.019-.73736-1.47473 .0001-.0001z" fill="#2e3436"/>
  </g>
  <g transform="matrix(1.0085 -1.5604 1.5604 1.0085 -533.02 782.49)">
   <path d="m501.74637,322.61183 .19425.009c.11791.005.23561.0144.35306.026l.43993.0643c.16616.0299.32895.0746.49049.12305 .17235.0514.33997.11632.50537.18652s.33449.16102.49559.25319c.17841.1004.34508.21858.50408.34711 .17027.13983.31537.30514.44694.48098 .1441.19121.23617.40886.29969.63794 .0659.26309.0412.52546-.0269.78428-.0844.28171-.26283.50295-.4803.69341-.21343.17593-.4687.27269-.73349.33919-.25255.0564-.51055.0515-.76634.0269-.23279-.0249-.45815-.088-.6792-.16265-.19152-.0673-.37691-.1504-.5595-.23875-.14958-.0739-.29579-.15433-.44203-.23456-.11897-.0657-.23853-.13025-.35984-.19152l-.35369-.17052c-.15757-.076-.30505-.16957-.4468-.27157-.14387-.10533-.27212-.22926-.39485-.35803-.11012-.11714-.20887-.24414-.305-.3728-.11969-.15415-.20954-.32585-.28223-.50614-.0941-.24352-.0982-.49497-.0558-.74892 .0752-.31321.23462-.51762.48385-.71231 .21097-.14736.45378-.20823.70614-.23066 .20445-.0128.40596.0217.60364.07 .18218.047.35359.12486.52215.20686 .13588.0692.27197.13793.4101.20255s.27601.11777.41702.16909 .28699.0947.43261.135l.0722.0189-.41294,1.56533-.0936-.0248c-.18614-.0521-.37152-.10733-.55305-.17402s-.36499-.13775-.54215-.21954l-.43665-.20901c-.069-.0329-.13805-.0668-.21093-.0905-.0122-.003-.096-.0197-.0875-.0228 .0451-.0183.0908-.0374.12835-.0704 .0835-.0757.14402-.16699.16102-.28059 .005-.0527.011-.11443-.0189-.16148-.002.028.0442.0832.0638.11333 .0565.077.11479.15285.17936.22335 .0539.0575.10914.11427.17187.16233 .0659.0498.13684.0918.21063.12888l.37023.18083c.13597.07.27055.14258.40399.21729 .12343.0683.24692.13651.37229.20118 .12064.0603.24363.11639.37045.16254 .10385.0365.20967.0684.31909.0832 .0746.009.15005.0149.22503.006 .017-.003.054-.0207.0647-.007-.0146.0311-.0355.0598-.0378.0956-.002.0258-.002.0502.0128.0727 .0181-.005-.0277-.0719-.032-.0787-.0469-.0684-.10091-.13151-.16373-.18601-.0876-.0738-.18198-.13803-.28184-.19415-.10654-.0609-.21493-.11863-.32741-.16794s-.21878-.0894-.33218-.12278c-.10351-.0305-.20763-.0593-.31399-.0783-.10091-.0179-.20236-.0331-.30446-.0425-.084-.007-.1683-.0118-.25265-.0127l-.14295.003v-1.64829z" fill="#2e3436"/>
   <path transform="matrix(.44633 .30974 -.30974 .44633 386.5 24.21)" d="m494.26 331.75c0 0.91143-1.6009 1.6503-3.5756 1.6503s-3.5756-0.73887-3.5756-1.6503 1.6009-1.6503 3.5756-1.6503c1.9639 0 3.5603 0.73107 3.5755 1.6375l-3.5755 0.0128z" fill="#a40000"/>
   <path d="m501.0349,322.01303c.10317-.0504.21368-.0811.32518-.10649 .14371-.03.30258-.13484.44895-.13704 .16875-.001.30033.0392.46753.0604 .17993.0236.38199.13323.55884.17337s.35908.0918.53597.14702c.17045.0539.33864.1146.50617.17695l.46806.18341 .46227.19146c.15661.0663.31237.13453.46733.20456 .17912.0787.35076.17219.51672.27547 .19036.11706.34869.26996.48524.44537 .12633.18378.21593.39452.22924.61955 .003.0553-.001.11085-.002.16628-.0346.2995-.18143.5616-.42679.73939l-.13017.0795c-.21662.11407-.45483.14454-.69586.14482-.20007-.004-.39468-.0498-.5857-.10543l-.46801-.16136c-.14624-.0534-.29281-.10588-.43989-.1569l-.43494-.14678c-.15083-.0502-.30012-.10486-.44874-.16122l-.44484-.18009-.43402-.18005-.4263-.18527c-.15085-.0659-.29787-.13987-.44209-.21913-.15503-.0842-.30038-.18375-.43879-.29278-.17537-.13628-.30694-.30972-.41344-.5026-.11136-.236-.14975-.50145-.0786-.75595 .0161-.0574.0416-.11176.0623-.16764 .1206-.23897.31458-.42405.56347-.52496 .0454-.0184.0932-.0302.13976-.0453 .24786-.0649.49341-.0308.73321.0454 .18813.0652.35315.17502.50788.29783l.29947.27061c.0711.0663.14737.12655.22667.1827s.17532.10753.2672.15363 .18641.0825.28161.11889l-.57853,1.51487c-.14601-.0557-.29124-.11378-.43148-.18301-.16489-.0828-.32735-.17112-.47845-.27756-.13427-.0951-.26434-.19594-.38566-.30729-.0739-.0673-.14634-.13619-.22263-.20078-.0115-.01-.0494-.035-.0117-.0225 .0747.0146.15062.01.22345-.0128 .16259-.0621.28729-.167.35751-.33031 .0543-.16903.075-.33157-.0157-.49317l-.0245-.0286c.0625.0542.13248.0983.20441.13887 .1032.0578.20851.11156.31691.15903 .12976.058.25986.1153.39064.171l.42758.17789 .39982.16075c.12982.0491.26001.0973.39152.14173l.44874.15278 .45623.16209c.12379.044.24759.0882.37334.12633 .049.0141.0981.0281.14847.0363-.0101.0114-.0841.03-.10656.05-.16939.11614-.27804.28356-.29058.49238 .004.10714.0134.21884.0887.30231 .0572.054-.0206-.0364-.0414-.0394-.0977-.0658-.20161-.12125-.30952-.16851-.14289-.0645-.28694-.12629-.43114-.18777l-.43458-.18017c-.14396-.0575-.28785-.11527-.43304-.16968l-.42071-.14855c-.13547-.0422-.27162-.0823-.41039-.11233-.12537-.0281-.25126-.0545-.37895-.0697-.0906-.0109-.18167-.0188-.273-.017-.0361.001-.0725.002-.10813.009l.0537-.019-.73736-1.47473 .0001-.0001z" fill="#2e3436"/>
  </g>
  <g transform="matrix(.97122 0 0 .97122 16.43 27.174)">
   <path d="m492.15625,300.15625c-.6417.0942-1.29488.1839-1.87284.50145-.73291.38066-1.46753.77575-2.13145,1.26864-.62975.5428-1.20033,1.22523-1.43661,2.03398-.18118.78671.19339,1.6282.8482,2.07823 .37382.20345.83352.38708 1.1267.58533 1.64116.0132 3.15725.7256 4.7472,1.03227 .39367.15172 1.01872.78903 1.34777.36402 .28717-.55465.30052-1.26439-.0353-1.80147-.49968.10211-1.06328.38569-1.54312.14964-1.332-.4914-2.62766-1.09507-3.79186-1.91484-.33205-.52708.73373-.66771 1.0474-.93576 .61099-.2769 1.13181-.9056 1.86612-.71398 1.33064.0665 2.41649.96306 3.70296,1.19619 .13672-.58967.95069.0222 1.37336-.18066 .54332-.13494.90447-.75491 1.52547-.45505 .60635.28587 1.50215-.52498.67022-.89911-.57986-.23749-1.21254-.30652-1.7247-.70404-.54588-.1175-1.06421-.32313-1.56714-.57061-.88686-.39356-1.86667-.48968-2.77497-.82126-.44808-.12499-.90981-.22286-1.37739-.21297z" fill="#a40000"/>
   <path d="m494.62616,306.10008c.37933.60105.42522,2.00041-.1671,2.18814 .25113-.69091.20779-1.42984.0356-2.12288l.13151-.0653zm-1.55239.33172c.16346.5028-.58176,1.05399-.27016.24317-.0237-.15188.0996-.3572.27016-.24317zm-1.97476-.67599c.14103.48935-.61978,1.03557-.28398.24471-.0148-.14993.10908-.38442.28398-.24471zm5.28904-1.91136c1.84888.45362 3.28989,2.07062 5.28104,2.03916 .65866.0908 1.93415-.10498 2.2029-.0491-.73443.22435-1.52465.10893-2.28172.14189-1.49194-.0712-2.77064-.89432-4.03037-1.60494-.32221-.24918-.98846-.28113-1.17185-.52706zm1.44488-.16034c1.26318.40781 2.40786,1.18598 3.76009,1.29877 .40529.0172 1.54894.18429.55865.17055-1.24297-.13924-2.44146-.51619-3.55354-1.08993-.17222-.18035-.76018-.14339-.7652-.37939zm.34931-.20401c1.24406-.13727 2.4429.35862 3.67931.41892 .46652.11533 1.65149.0692 1.66846.14995-.93982.15821-1.88825-.15962-2.82787-.21984-.81367-.17536-1.78103-.2701-2.5199-.34903zm-10.92356,1.52717c.53022.3255 2.01017-.43045 1.8743.22613-.55259.0442-1.66985.39218-1.93113-.12928l.0568-.0968zm.99402-2.70619c.00014.39034 1.15435,1.24838.42995,1.20693-.20082-.15989-1.05797-1.21169-.42995-1.20693zm1.83842-1.12359c-.12194.41883.50117,1.66802-.10535,1.44349-.0874-.28778-.45527-1.53959.10535-1.44349zm2.26071-.57398c-.21311.32965-.003,1.82732-.49319,1.30246 .029-.30027-.0148-1.60367.49319-1.30246zm2.3587.40734c-.42644.44776-.43706,1.67341-.90662,1.67655 .007-.34671.34883-2.0722.90662-1.67655zm2.23983.61487c.59313.081-.38354,1.01172 0,0z" fill="#2e3436"/>
  </g>
  <g transform="matrix(-.96053 -.14375 .14375 -.96053 933.2 697.51)">
   <path d="m492.15625,300.15625c-.6417.0942-1.29488.1839-1.87284.50145-.73291.38066-1.46753.77575-2.13145,1.26864-.62975.5428-1.20033,1.22523-1.43661,2.03398-.18118.78671.19339,1.6282.8482,2.07823 .37382.20345.83352.38708 1.1267.58533 1.64116.0132 3.15725.7256 4.7472,1.03227 .39367.15172 1.01872.78903 1.34777.36402 .28717-.55465.30052-1.26439-.0353-1.80147-.49968.10211-1.06328.38569-1.54312.14964-1.332-.4914-2.62766-1.09507-3.79186-1.91484-.33205-.52708.73373-.66771 1.0474-.93576 .61099-.2769 1.13181-.9056 1.86612-.71398 1.33064.0665 2.41649.96306 3.70296,1.19619 .13672-.58967.95069.0222 1.37336-.18066 .54332-.13494.90447-.75491 1.52547-.45505 .60635.28587 1.50215-.52498.67022-.89911-.57986-.23749-1.21254-.30652-1.7247-.70404-.54588-.1175-1.06421-.32313-1.56714-.57061-.88686-.39356-1.86667-.48968-2.77497-.82126-.44808-.12499-.90981-.22286-1.37739-.21297z" fill="#a40000"/>
   <path d="m494.62616,306.10008c.37933.60105.42522,2.00041-.1671,2.18814 .25113-.69091.20779-1.42984.0356-2.12288l.13151-.0653zm-1.55239.33172c.16346.5028-.58176,1.05399-.27016.24317-.0237-.15188.0996-.3572.27016-.24317zm-1.97476-.67599c.14103.48935-.61978,1.03557-.28398.24471-.0148-.14993.10908-.38442.28398-.24471zm5.28904-1.91136c1.84888.45362 3.28989,2.07062 5.28104,2.03916 .65866.0908 1.93415-.10498 2.2029-.0491-.73443.22435-1.52465.10893-2.28172.14189-1.49194-.0712-2.77064-.89432-4.03037-1.60494-.32221-.24918-.98846-.28113-1.17185-.52706zm1.44488-.16034c1.26318.40781 2.40786,1.18598 3.76009,1.29877 .40529.0172 1.54894.18429.55865.17055-1.24297-.13924-2.44146-.51619-3.55354-1.08993-.17222-.18035-.76018-.14339-.7652-.37939zm.34931-.20401c1.24406-.13727 2.4429.35862 3.67931.41892 .46652.11533 1.65149.0692 1.66846.14995-.93982.15821-1.88825-.15962-2.82787-.21984-.81367-.17536-1.78103-.2701-2.5199-.34903zm-10.92356,1.52717c.53022.3255 2.01017-.43045 1.8743.22613-.55259.0442-1.66985.39218-1.93113-.12928l.0568-.0968zm.99402-2.70619c.00014.39034 1.15435,1.24838.42995,1.20693-.20082-.15989-1.05797-1.21169-.42995-1.20693zm1.83842-1.12359c-.12194.41883.50117,1.66802-.10535,1.44349-.0874-.28778-.45527-1.53959.10535-1.44349zm2.26071-.57398c-.21311.32965-.003,1.82732-.49319,1.30246 .029-.30027-.0148-1.60367.49319-1.30246zm2.3587.40734c-.42644.44776-.43706,1.67341-.90662,1.67655 .007-.34671.34883-2.0722.90662-1.67655zm2.23983.61487c.59313.081-.38354,1.01172 0,0z" fill="#2e3436"/>
  </g>
  <g transform="matrix(.91334 .33028 -.33028 .91334 175.65 -118.31)">
   <path d="m492.15625,300.15625c-.6417.0942-1.29488.1839-1.87284.50145-.73291.38066-1.46753.77575-2.13145,1.26864-.62975.5428-1.20033,1.22523-1.43661,2.03398-.18118.78671.19339,1.6282.8482,2.07823 .37382.20345.83352.38708 1.1267.58533 1.64116.0132 3.15725.7256 4.7472,1.03227 .39367.15172 1.01872.78903 1.34777.36402 .28717-.55465.30052-1.26439-.0353-1.80147-.49968.10211-1.06328.38569-1.54312.14964-1.332-.4914-2.62766-1.09507-3.79186-1.91484-.33205-.52708.73373-.66771 1.0474-.93576 .61099-.2769 1.13181-.9056 1.86612-.71398 1.33064.0665 2.41649.96306 3.70296,1.19619 .13672-.58967.95069.0222 1.37336-.18066 .54332-.13494.90447-.75491 1.52547-.45505 .60635.28587 1.50215-.52498.67022-.89911-.57986-.23749-1.21254-.30652-1.7247-.70404-.54588-.1175-1.06421-.32313-1.56714-.57061-.88686-.39356-1.86667-.48968-2.77497-.82126-.44808-.12499-.90981-.22286-1.37739-.21297z" fill="#a40000"/>
   <path d="m494.62616,306.10008c.37933.60105.42522,2.00041-.1671,2.18814 .25113-.69091.20779-1.42984.0356-2.12288l.13151-.0653zm-1.55239.33172c.16346.5028-.58176,1.05399-.27016.24317-.0237-.15188.0996-.3572.27016-.24317zm-1.97476-.67599c.14103.48935-.61978,1.03557-.28398.24471-.0148-.14993.10908-.38442.28398-.24471zm5.28904-1.91136c1.84888.45362 3.28989,2.07062 5.28104,2.03916 .65866.0908 1.93415-.10498 2.2029-.0491-.73443.22435-1.52465.10893-2.28172.14189-1.49194-.0712-2.77064-.89432-4.03037-1.60494-.32221-.24918-.98846-.28113-1.17185-.52706zm1.44488-.16034c1.26318.40781 2.40786,1.18598 3.76009,1.29877 .40529.0172 1.54894.18429.55865.17055-1.24297-.13924-2.44146-.51619-3.55354-1.08993-.17222-.18035-.76018-.14339-.7652-.37939zm.34931-.20401c1.24406-.13727 2.4429.35862 3.67931.41892 .46652.11533 1.65149.0692 1.66846.14995-.93982.15821-1.88825-.15962-2.82787-.21984-.81367-.17536-1.78103-.2701-2.5199-.34903zm-10.92356,1.52717c.53022.3255 2.01017-.43045 1.8743.22613-.55259.0442-1.66985.39218-1.93113-.12928l.0568-.0968zm.99402-2.70619c.00014.39034 1.15435,1.24838.42995,1.20693-.20082-.15989-1.05797-1.21169-.42995-1.20693zm1.83842-1.12359c-.12194.41883.50117,1.66802-.10535,1.44349-.0874-.28778-.45527-1.53959.10535-1.44349zm2.26071-.57398c-.21311.32965-.003,1.82732-.49319,1.30246 .029-.30027-.0148-1.60367.49319-1.30246zm2.3587.40734c-.42644.44776-.43706,1.67341-.90662,1.67655 .007-.34671.34883-2.0722.90662-1.67655zm2.23983.61487c.59313.081-.38354,1.01172 0,0z" fill="#2e3436"/>
  </g>
  <path d="m479.61668,333.71225c.11409.0226.2263.0535.33802.0856l.49278.14546c.19247.056.38674.10538.58197.15071 .20754.0478.41714.0856.62733.11952 .22953.0359.4602.0637.69107.0893 .25504.0273.51044.0511.76596.0733l.77664.0642 .46807.027-.0905,2.57444-.58008-.0334-.80112-.0662c-.27292-.0245-.54572-.0504-.81833-.0782-.27519-.0296-.55025-.0613-.82385-.10347-.26491-.043-.52915-.0901-.79101-.1492-.23419-.0529-.46748-.10966-.69916-.17276l-.46116-.11853-.10797-.0195 .43138-2.5883z" fill="#306004"/>
  <path d="m514.7434,319.46067c-.0254.12281-.0594.2435-.0971.36305-.0581.17803-.12306.35371-.18788.52936-.0801.22096-.16582.4398-.25425.65753-.0994.24799-.20878.49178-.32297.73324-.12471.25874-.26336.51029-.4042.7605s-.28872.49344-.43991.73605l-2.1848-1.3635c.13039-.2086.25817-.41883.37804-.6337 .11067-.19775.22054-.39609.31878-.60039 .0925-.19631.17969-.39514.25939-.59699 .0745-.18669.14608-.37449.21016-.56502 .0443-.12866.089-.25736.12525-.38859 .005-.0214.0215-.0938.014-.0812l2.58545.44965z" fill="#306004"/>
  <path d="m536.91312,333.63263c.1624.0127.32098.0505.47753.0938 .17277.0489.33992.11445.50543.18349 .18442.0763.36463.16195.54294.25144s.36493.19214.54628.2903c.19405.10228.38655.20725.57515.31927 .22041.13099.42662.28311.62883.4402l.0778.06-1.58105,2.04906-.0844-.0651c-.11827-.0918-.23721-.18306-.36606-.25986-.1562-.0935-.3169-.17889-.47796-.26363s-.31295-.1683-.47183-.2478c-.1228-.0601-.24671-.11799-.37433-.16732-.0694-.0274-.13898-.055-.21145-.0732 .0128.002.0257.005.0386.006l.17445-2.61666z" fill="#306004"/>
  <path transform="matrix(.35714 0 0 .35714 301.69 220.09)" d="m471.68666,295.35443c0,.35433-.40214.64158-.89821.64158s-.8982-.28725-.8982-.64158 .40214-.64157.8982-.64157 .89821.28724.89821.64157z" fill="#888a85"/>
  <path transform="matrix(.35714 0 0 .35714 302.78 221.12)" d="m471.68666,295.35443c0,.35433-.40214.64158-.89821.64158s-.8982-.28725-.8982-.64158 .40214-.64157.8982-.64157 .89821.28724.89821.64157z" fill="#888a85"/>
  <path transform="matrix(.35714 0 0 .35714 303.93 219.96)" d="m471.68666,295.35443c0,.35433-.40214.64158-.89821.64158s-.8982-.28725-.8982-.64158 .40214-.64157.8982-.64157 .89821.28724.89821.64157z" fill="#888a85"/>
  <path transform="matrix(.35714 0 0 .35714 316.6 211.49)" d="m471.68666,295.35443c0,.35433-.40214.64158-.89821.64158s-.8982-.28725-.8982-.64158 .40214-.64157.8982-.64157 .89821.28724.89821.64157z" fill="#888a85"/>
  <path transform="matrix(.35714 0 0 .35714 317.69 212.52)" d="m471.68666,295.35443c0,.35433-.40214.64158-.89821.64158s-.8982-.28725-.8982-.64158 .40214-.64157.8982-.64157 .89821.28724.89821.64157z" fill="#888a85"/>
  <path transform="matrix(.35714 0 0 .35714 318.85 211.36)" d="m471.68666,295.35443c0,.35433-.40214.64158-.89821.64158s-.8982-.28725-.8982-.64158 .40214-.64157.8982-.64157 .89821.28724.89821.64157z" fill="#888a85"/>
  <path transform="matrix(.20166 .29476 -.29476 .20166 496.65 128.11)" d="m471.68666,295.35443c0,.35433-.40214.64158-.89821.64158s-.8982-.28725-.8982-.64158 .40214-.64157.8982-.64157 .89821.28724.89821.64157z" fill="#888a85"/>
  <path transform="matrix(.20166 .29476 -.29476 .20166 496.42 129.59)" d="m471.68666,295.35443c0,.35433-.40214.64158-.89821.64158s-.8982-.28725-.8982-.64158 .40214-.64157.8982-.64157 .89821.28724.89821.64157z" fill="#888a85"/>
  <path transform="matrix(.20166 .29476 -.29476 .20166 498.02 129.89)" d="m471.68666,295.35443c0,.35433-.40214.64158-.89821.64158s-.8982-.28725-.8982-.64158 .40214-.64157.8982-.64157 .89821.28724.89821.64157z" fill="#888a85"/>
  <path transform="matrix(.35714 0 0 .35714 348.81 219.51)" d="m471.68666,295.35443c0,.35433-.40214.64158-.89821.64158s-.8982-.28725-.8982-.64158 .40214-.64157.8982-.64157 .89821.28724.89821.64157z" fill="#888a85"/>
  <path transform="matrix(.35714 0 0 .35714 349.9 220.54)" d="m471.68666,295.35443c0,.35433-.40214.64158-.89821.64158s-.8982-.28725-.8982-.64158 .40214-.64157.8982-.64157 .89821.28724.89821.64157z" fill="#888a85"/>
  <path transform="matrix(.35714 0 0 .35714 351.06 219.38)" d="m471.68666,295.35443c0,.35433-.40214.64158-.89821.64158s-.8982-.28725-.8982-.64158 .40214-.64157.8982-.64157 .89821.28724.89821.64157z" fill="#888a85"/>
  <g transform="matrix(.8221 -.56934 .56934 .8221 -29.919 362.77)" fill="#888a85">
   <path transform="matrix(.35714 0 0 .35714 302.65 189.87)" d="m471.68666,295.35443c0,.35433-.40214.64158-.89821.64158s-.8982-.28725-.8982-.64158 .40214-.64157.8982-.64157 .89821.28724.89821.64157z"/>
   <path transform="matrix(.35714 0 0 .35714 303.74 190.9)" d="m471.68666,295.35443c0,.35433-.40214.64158-.89821.64158s-.8982-.28725-.8982-.64158 .40214-.64157.8982-.64157 .89821.28724.89821.64157z"/>
   <path transform="matrix(.35714 0 0 .35714 304.9 189.74)" d="m471.68666,295.35443c0,.35433-.40214.64158-.89821.64158s-.8982-.28725-.8982-.64158 .40214-.64157.8982-.64157 .89821.28724.89821.64157z"/>
   <path transform="matrix(.35714 0 0 .35714 302.65 189.87)" d="m471.68666,295.35443c0,.35433-.40214.64158-.89821.64158s-.8982-.28725-.8982-.64158 .40214-.64157.8982-.64157 .89821.28724.89821.64157z"/>
   <path transform="matrix(.35714 0 0 .35714 303.74 190.9)" d="m471.68666,295.35443c0,.35433-.40214.64158-.89821.64158s-.8982-.28725-.8982-.64158 .40214-.64157.8982-.64157 .89821.28724.89821.64157z"/>
   <path transform="matrix(.35714 0 0 .35714 304.9 189.74)" d="m471.68666,295.35443c0,.35433-.40214.64158-.89821.64158s-.8982-.28725-.8982-.64158 .40214-.64157.8982-.64157 .89821.28724.89821.64157z"/>
  </g>
  <path transform="matrix(.35714 0 0 .35714 317.44 222.21)" d="m471.68666,295.35443c0,.35433-.40214.64158-.89821.64158s-.8982-.28725-.8982-.64158 .40214-.64157.8982-.64157 .89821.28724.89821.64157z" fill="#888a85"/>
  <path transform="matrix(.35714 0 0 .35714 318.53 223.23)" d="m471.68666,295.35443c0,.35433-.40214.64158-.89821.64158s-.8982-.28725-.8982-.64158 .40214-.64157.8982-.64157 .89821.28724.89821.64157z" fill="#888a85"/>
  <path transform="matrix(.35714 0 0 .35714 319.68 222.08)" d="m471.68666,295.35443c0,.35433-.40214.64158-.89821.64158s-.8982-.28725-.8982-.64158 .40214-.64157.8982-.64157 .89821.28724.89821.64157z" fill="#888a85"/>
  <path transform="matrix(.35714 0 0 .35714 338.42 214.64)" d="m471.68666,295.35443c0,.35433-.40214.64158-.89821.64158s-.8982-.28725-.8982-.64158 .40214-.64157.8982-.64157 .89821.28724.89821.64157z" fill="#888a85"/>
  <path transform="matrix(.35714 0 0 .35714 339.51 215.66)" d="m471.68666,295.35443c0,.35433-.40214.64158-.89821.64158s-.8982-.28725-.8982-.64158 .40214-.64157.8982-.64157 .89821.28724.89821.64157z" fill="#888a85"/>
  <path transform="matrix(.35714 0 0 .35714 340.66 214.51)" d="m471.68666,295.35443c0,.35433-.40214.64158-.89821.64158s-.8982-.28725-.8982-.64158 .40214-.64157.8982-.64157 .89821.28724.89821.64157z" fill="#888a85"/>
 </g>
</svg>
